<svg xmlns="http://www.w3.org/2000/svg" width="660" height="225" viewBox="0 0 660 225"><g fill="none"><path fill="#00859A" d="M546.865 147.79c0 4.85-3.942 8.8-8.803 8.8-4.86 0-8.803-3.95-8.803-8.8a8.8 8.8 0 0 1 8.8-8.802 8.802 8.802 0 0 1 8.804 8.803m100.539-44.741c20.512-29.992 12.814-70.93-17.174-91.442-29.998-20.51-70.94-12.816-91.445 17.175-18.496 27.05-14.057 63.006 8.998 84.842l-1.26 19.963c.035.19.223.318.414.283l18.145-8.42c28.715 13.56 63.825 4.65 82.323-22.4"/><path fill="#FFF" d="M551.917 60.51V41.77c0-.954.764-1.748 1.75-1.748.985 0 1.778.794 1.778 1.747v16.96h8.61c.92 0 1.745.794 1.745 1.78 0 .952-.826 1.746-1.746 1.746h-10.386c-.986 0-1.75-.794-1.75-1.747m18.265-18.738c0-.986.762-1.748 1.746-1.748.95 0 1.777.762 1.777 1.747v18.74c0 .986-.826 1.747-1.78 1.747a1.72 1.72 0 0 1-1.745-1.747V41.77m16.711 20.172c-.064-.065-.127-.097-.22-.16 0-.03-.034-.03-.034-.097a.725.725 0 0 1-.158-.188s-.03 0-.03-.033c-.034-.062-.1-.192-.16-.254l-7.785-18.553a1.693 1.693 0 0 1 .953-2.254c.86-.38 1.874.03 2.256.92l6.196 14.71 6.195-14.71c.38-.89 1.428-1.3 2.285-.92.89.35 1.303 1.397.953 2.254l-7.845 18.553c-.034.062-.065.192-.13.254 0 .033 0 .033-.03.033-.032.064-.128.127-.157.188-.03.066-.03.066-.064.097-.063.063-.127.095-.19.16l-.064.03c-.062.032-.155.126-.253.16-.03 0-.03 0-.064.03-.095 0-.16.034-.255.063h-.06c-.13.033-.224.033-.32.033-.097 0-.224 0-.32-.033h-.06a.82.82 0 0 0-.254-.062c0-.032-.033-.032-.033-.032h-.032c-.06-.03-.19-.125-.284-.187h-.033m15.625-1.434V41.77c0-.986.765-1.748 1.75-1.748h10.388c.92 0 1.746.762 1.746 1.747 0 .984-.826 1.775-1.746 1.775h-8.61v5.815h7.403c.953 0 1.748.827 1.748 1.748 0 .985-.795 1.78-1.746 1.78h-7.402v5.844h8.61c.92 0 1.746.794 1.746 1.78 0 .952-.826 1.746-1.746 1.746h-10.293c-.063 0-.063-.033-.063-.033l-.033.033c-.984 0-1.75-.794-1.75-1.747m29.733-13.66c0-1.84-1.463-3.304-3.27-3.304h-3.91v6.547h3.91c1.807 0 3.27-1.46 3.27-3.243zm4.446 12.773c.32.92-.19 1.903-1.11 2.222-.125.032-.38.097-.7.097h-.03a2.32 2.32 0 0 1-1.24-.35c-.41-.255-.76-.667-1.014-1.114-.45-.92-.668-2.062-.668-3.81-.033-.604-.16-1.017-.383-1.367-.19-.347-.57-.665-.953-.92-.665-.442-1.49-.695-1.776-.76h-3.748v6.892c0 .954-.797 1.748-1.78 1.748a1.743 1.743 0 0 1-1.748-1.747V41.77c0-.986.764-1.748 1.748-1.748h5.686c3.777 0 6.795 3.05 6.795 6.828 0 2.098-.953 3.942-2.477 5.21.41.32.793.7 1.112 1.175a6.039 6.039 0 0 1 1.048 3.434c-.035.95.06 1.554.125 1.87.51.16.92.542 1.11 1.082l.003.002zM555.445 79.81h3.906a3.29 3.29 0 0 0 3.307-3.24c-.03-1.844-1.46-3.304-3.305-3.304h-3.905v6.544h-.003zm3.906 3.527h-3.904v6.895c0 .95-.793 1.744-1.78 1.744a1.763 1.763 0 0 1-1.748-1.744V71.487c0-.983.795-1.747 1.75-1.747h5.684a6.82 6.82 0 0 1 6.833 6.83c0 3.718-3.05 6.767-6.832 6.767h-.003zm28.209-2.795c0-2.16-.857-4.163-2.16-5.562-1.334-1.428-3.113-2.254-5.018-2.254-2.035 0-3.812.826-5.148 2.254-1.334 1.4-2.158 3.402-2.158 5.562s.824 4.16 2.158 5.523c1.336 1.432 3.113 2.29 5.148 2.29 1.905 0 3.684-.858 5.018-2.29 1.303-1.363 2.16-3.363 2.16-5.523zm.414-8.037c1.97 2.095 3.207 4.89 3.207 8.037 0 3.142-1.236 5.972-3.205 8.035-1.875 2.065-4.67 3.4-7.592 3.4-3.05 0-5.845-1.335-7.783-3.4-1.972-2.063-3.145-4.893-3.145-8.035 0-3.146 1.173-5.942 3.144-8.037a10.589 10.589 0 0 1 7.78-3.402c2.923 0 5.718 1.304 7.593 3.402h.001zm26.27 8.037c0-2.16-.858-4.163-2.162-5.562-1.332-1.428-3.112-2.254-5.018-2.254-2.033 0-3.81.826-5.147 2.254-1.334 1.4-2.16 3.402-2.16 5.562s.826 4.16 2.16 5.523c1.336 1.432 3.114 2.29 5.147 2.29 1.906 0 3.686-.858 5.018-2.29 1.304-1.363 2.162-3.363 2.162-5.523zm.414-8.037c1.967 2.095 3.21 4.89 3.21 8.037 0 3.142-1.243 5.972-3.21 8.035-1.875 2.065-4.67 3.4-7.594 3.4-3.05 0-5.846-1.335-7.783-3.4-1.967-2.063-3.14-4.893-3.14-8.035 0-3.146 1.173-5.942 3.142-8.037a10.603 10.603 0 0 1 7.784-3.402c2.924 0 5.72 1.304 7.594 3.402h-.003zm9.306 17.727V71.487c0-.953.762-1.747 1.746-1.747.987 0 1.78.794 1.78 1.747V88.45h8.61c.92 0 1.745.796 1.745 1.782 0 .95-.824 1.744-1.746 1.744h-10.39a1.742 1.742 0 0 1-1.747-1.744"/><path fill="#E36541" d="M432.343 119.582a39.837 39.837 0 0 1-4.21 16.264 40.284 40.284 0 0 1-10.116 12.81l-.017.016-.05 11.404v.018h.1c.008-3.883 3.174-7.043 7.057-7.043 3.89 0 7.057 3.168 7.057 7.058v.016l-.002.018v.01l.1.01.18-40.576-.1-.002"/><path fill="#E36540" d="M418.187 117.904l-.004.738c.008-.263.04-.523.04-.79 0-.067-.01-.13-.01-.2-.005.086-.026.164-.026.252"/><path fill="#DC3B49" d="M425.107 152.95c-3.936 0-7.145 3.2-7.156 7.136v.02c0 14.107-11.477 25.58-25.583 25.58-3.47 0-6.815-.672-9.946-2a7.101 7.101 0 0 0-2.79-.567c-2.88 0-5.47 1.71-6.59 4.36a7.107 7.107 0 0 0-.048 5.478 7.12 7.12 0 0 0 3.843 3.905c4.91 2.08 10.136 3.135 15.533 3.135 21.975 0 39.872-17.877 39.895-39.85 0-.008.003-.013.003-.02v-.023c0-3.945-3.21-7.156-7.156-7.156"/><path fill="#C15A2D" d="M418.132 118.64c-.205 6.788-3.004 13.14-7.88 17.89-4.89 4.76-11.334 7.384-18.144 7.384v.1c3.89 0 7.057 3.166 7.057 7.056 0 3.893-3.166 7.06-7.057 7.06v.098c9.478 0 18.704-3.37 25.974-9.496l.017-.013.13-30.08h-.1"/><path fill="#DD452F" d="M432.35 118.224c-.2 3.75-3.282 6.684-7.02 6.684-3.89 0-7.06-3.166-7.06-7.057h-.1c0 .155-.008.305-.018.454-.008.113-.016.224-.02.34l-.132 30.05v.108l.082-.07a40.41 40.41 0 0 0 10.14-12.842 39.873 39.873 0 0 0 4.22-16.306l.007-1.356-.1-.004"/><path fill="#E77B2B" d="M392.108 77.474v.1c3.89 0 7.057 3.165 7.057 7.056 0 3.89-3.166 7.057-7.057 7.057v.1c6.916 0 13.432 2.69 18.35 7.578 4.915 4.883 7.65 11.38 7.704 18.287l.1.002a7.01 7.01 0 0 1 .556-2.52 7.046 7.046 0 0 1 6.512-4.34c3.89 0 7.056 3.167 7.056 7.057h.1c0-22.262-18.113-40.375-40.378-40.375"/><path fill="#E7792B" d="M418.212 117.652c0 .07.01.133.01.2 0-.97.197-1.897.55-2.74a7.066 7.066 0 0 0-.56 2.54"/><path fill="#DC4030" d="M432.4 117.127c0-.008-.004-.018-.004-.028a7.107 7.107 0 0 0-7.066-6.355c-1.42 0-2.737.424-3.846 1.143-.04.024-.088.045-.13.073-.024.018-.046.038-.07.055a7.166 7.166 0 0 0-2.558 3.077 7.13 7.13 0 0 0-.555 2.757c0 3.95 3.213 7.157 7.16 7.157 3.79 0 6.92-2.977 7.12-6.78v-.26c0-.283-.02-.564-.05-.84"/><path fill="#C15A2D" d="M351.73 117.85h.1c0-3.89 3.165-7.055 7.057-7.055 3.89 0 7.057 3.166 7.057 7.056h.1c0-14.37 11.69-26.063 26.064-26.063v-.1c-3.893 0-7.06-3.165-7.06-7.056 0-3.89 3.167-7.056 7.06-7.056v-.1c-22.266 0-40.38 18.114-40.38 40.378"/><path fill="#E05232" d="M392.108 77.474c-3.947 0-7.158 3.21-7.158 7.156 0 3.946 3.21 7.156 7.158 7.156 3.945 0 7.156-3.21 7.156-7.156a7.164 7.164 0 0 0-7.156-7.156"/><path fill="#E36541" d="M366.043 117.85h-.1c0 3.892-3.165 7.058-7.056 7.058-3.892 0-7.058-3.166-7.058-7.057h-.1c0 22.266 18.11 40.38 40.377 40.38v-.1a7.067 7.067 0 0 1-7.06-7.06c0-3.89 3.167-7.055 7.06-7.055v-.1c-14.373 0-26.065-11.69-26.065-26.063"/><path fill="#DE472F" d="M392.108 143.914c-3.947 0-7.158 3.21-7.158 7.156a7.165 7.165 0 0 0 7.158 7.158c3.945 0 7.156-3.21 7.156-7.158 0-3.945-3.21-7.156-7.156-7.156m-33.221-33.219c-3.947 0-7.158 3.21-7.158 7.156 0 3.95 3.21 7.16 7.156 7.16 3.946 0 7.156-3.21 7.156-7.158 0-3.944-3.21-7.155-7.156-7.155"/><path fill="#23A7AD" d="M252.725 117.857l-.002.346c-.1 11.727-5.325 22.816-14.33 30.426l-.018.013-.05 11.31.002.015h.1c.01-3.884 3.174-7.042 7.055-7.042 3.892 0 7.06 3.166 7.06 7.056l-.003.016v.023l.097.01.184-41.827c.003-.115.003-.232.003-.348h-.1"/><path fill="#007B40" d="M252.54 160.023c-.023 3.87-3.188 7.018-7.056 7.018h-.03c-3.883-.014-7.034-3.184-7.027-7.07h-.1v.015c0 14.102-11.477 25.574-25.583 25.574-3.46 0-6.812-.676-9.964-2.004a7.142 7.142 0 0 0-9.378 3.807 7.114 7.114 0 0 0-.037 5.477 7.116 7.116 0 0 0 3.846 3.9c4.918 2.08 10.145 3.132 15.535 3.132 21.977 0 39.873-17.874 39.895-39.847h-.1"/><path fill="#149E80" d="M245.482 152.828c-3.936 0-7.146 3.203-7.155 7.14-.01 3.94 3.19 7.157 7.126 7.173h.03c3.923 0 7.133-3.192 7.156-7.116v-.04c0-3.946-3.21-7.155-7.16-7.155"/><path fill="#68B4A3" d="M238.51 117.86l-.002.216c-.06 6.904-2.8 13.395-7.716 18.272-4.92 4.88-11.436 7.568-18.347 7.568v.1c3.89 0 7.057 3.167 7.057 7.06 0 3.89-3.166 7.057-7.057 7.057v.1a40.384 40.384 0 0 0 26.012-9.528l.018-.014.132-30.61v-.22h-.098"/><path fill="#25A6B8" d="M252.725 117.85c-.002 3.892-3.168 7.058-7.06 7.058-3.89 0-7.056-3.166-7.056-7.057h-.06l-.037-.013-.14 30.94.083-.07c9.13-7.714 14.366-18.958 14.367-30.855h-.1"/><path fill="#007B40" d="M212.445 77.474v.1c3.89 0 7.057 3.165 7.057 7.056 0 3.89-3.166 7.057-7.057 7.057v.1c14.368 0 26.06 11.69 26.065 26.06h.1v-.072c.017-3.875 3.183-7.027 7.056-7.027h.03c3.85.018 7.003 3.162 7.027 7.01v.072h.1v-.072c-.05-22.214-18.163-40.284-40.378-40.284"/><path fill="#20A096" d="M245.666 110.695c-3.945 0-7.156 3.21-7.156 7.156 0 3.95 3.21 7.16 7.156 7.16 3.945 0 7.156-3.21 7.158-7.158-.002-3.944-3.213-7.155-7.158-7.155"/><path fill="#00A4AA" d="M172.066 117.85h.1c0-3.89 3.166-7.055 7.057-7.055 3.892 0 7.058 3.166 7.058 7.056h.1c0-14.37 11.694-26.063 26.066-26.063v-.1c-3.89 0-7.058-3.165-7.058-7.056 0-3.89 3.167-7.056 7.058-7.056v-.1c-22.265 0-40.38 18.114-40.38 40.378"/><path fill="#009C52" d="M212.445 77.474c-3.947 0-7.158 3.21-7.158 7.156 0 3.946 3.21 7.156 7.158 7.156 3.947 0 7.157-3.21 7.157-7.156 0-3.946-3.21-7.156-7.157-7.156"/><path fill="#007B40" d="M186.38 117.85h-.1c0 3.892-3.165 7.058-7.057 7.058-3.89 0-7.057-3.166-7.057-7.057h-.1c0 22.268 18.114 40.383 40.38 40.383v-.1c-3.892 0-7.06-3.165-7.06-7.056 0-3.893 3.168-7.06 7.06-7.06v-.1c-14.373 0-26.065-11.692-26.065-26.065"/><path fill="#0D9E70" d="M212.445 143.916c-3.947 0-7.158 3.213-7.158 7.16 0 3.945 3.21 7.156 7.158 7.156 3.947 0 7.157-3.21 7.157-7.156 0-3.947-3.21-7.16-7.157-7.16"/><path fill="#149E80" d="M179.223 110.695c-3.946 0-7.157 3.21-7.157 7.156 0 3.95 3.21 7.16 7.157 7.16a7.165 7.165 0 0 0 7.158-7.158c0-3.944-3.21-7.155-7.156-7.155"/><path fill="#2C7D95" d="M71.063 136.713a7.104 7.104 0 0 0-2.54-4.854 7.15 7.15 0 0 0-10.079.901 24.894 24.894 0 0 1-19.155 8.958v.098c3.892 0 7.057 3.166 7.057 7.06 0 3.89-3.165 7.054-7.057 7.054v.1a39.184 39.184 0 0 0 30.14-14.09 7.13 7.13 0 0 0 1.636-5.23"/><path fill="#3E6598" d="M24.232 136.652c-4.223-3.205-7.377-7.752-8.878-12.806l-.01-.036H7.156c-3.89 0-7.056-3.166-7.056-7.056H0c0 21.658 17.624 39.277 39.287 39.277v-.097c-3.89 0-7.057-3.165-7.057-7.055 0-3.893 3.166-7.06 7.057-7.06v-.098a24.7 24.7 0 0 1-15.055-5.068"/><path fill="#1B7BAB" d="M39.287 141.72c-3.945 0-7.156 3.21-7.156 7.157 0 3.945 3.213 7.154 7.158 7.154 3.947 0 7.156-3.207 7.156-7.152 0-3.947-3.21-7.158-7.156-7.158"/><path fill="#2C7D95" d="M39.287 77.474v.1a7.064 7.064 0 0 1 7.057 7.056c0 3.89-3.165 7.057-7.057 7.057v.1c5.482 0 10.686 1.75 15.05 5.066 4.223 3.207 7.374 7.754 8.875 12.807l.01.035h8.188c3.89 0 7.057 3.168 7.057 7.06h.1c0-21.66-17.62-39.28-39.28-39.28"/><path fill="#3E6598" d="M0 116.754h.1c0-3.89 3.166-7.06 7.056-7.06h8.188l.01-.034c1.502-5.053 4.655-9.6 8.878-12.807a24.702 24.702 0 0 1 15.055-5.067v-.1c-3.89 0-7.057-3.165-7.057-7.056 0-3.89 3.166-7.057 7.057-7.057v-.1C17.624 77.473 0 95.096 0 116.753"/><path fill="#58B0C4" d="M64.354 116.754c0-2.393-.352-4.79-1.046-7.123l-.01-.033H15.27l-.01.035a24.98 24.98 0 0 0-1.047 7.124c0 2.392.352 4.79 1.046 7.12l.01.036h56.14v-.1c-3.89 0-7.057-3.166-7.057-7.056"/><path fill="#25A6CB" d="M15.354 123.846a24.904 24.904 0 0 1-1.04-7.092h-.1c0 3.89-3.167 7.056-7.058 7.056v.1h8.217l-.02-.064"/><path fill="#24A2C9" d="M71.41 109.596h-8.217l.02.064c.69 2.324 1.04 4.71 1.04 7.094 0 3.947 3.21 7.156 7.157 7.156a7.164 7.164 0 0 0 7.156-7.156c0-3.947-3.21-7.158-7.156-7.158"/><path fill="#25A6CB" d="M7.156 109.596v.1c3.89 0 7.057 3.167 7.057 7.058h.1c0-2.38.35-4.768 1.04-7.094l.02-.064H7.156"/><path fill="#239EC5" d="M7.156 109.596c-3.946 0-7.156 3.21-7.156 7.158a7.163 7.163 0 0 0 7.156 7.156c3.947 0 7.157-3.21 7.157-7.156 0-3.947-3.21-7.158-7.157-7.158"/><path fill="#B83282" d="M512.628 136.724a7.107 7.107 0 0 0-2.533-4.857 7.165 7.165 0 0 0-4.59-1.67 7.14 7.14 0 0 0-5.492 2.563 24.971 24.971 0 0 1-19.174 8.96v.098c3.89 0 7.057 3.166 7.057 7.06 0 3.89-3.166 7.054-7.06 7.054v.1a39.24 39.24 0 0 0 30.148-14.08 7.11 7.11 0 0 0 1.642-5.228"/><path fill="#D771A0" d="M465.78 136.642c-4.222-3.21-7.372-7.765-8.868-12.826l-.01-.035h-7.877c-.05.004-.096.01-.14.018-.057.008-.11.013-.163.013-3.892 0-7.058-3.165-7.058-7.055h-.1c0 21.658 17.62 39.277 39.275 39.277v-.098c-3.89 0-7.058-3.165-7.058-7.055 0-3.894 3.166-7.06 7.056-7.06v-.1a24.682 24.682 0 0 1-15.06-5.077"/><path fill="#D71D7F" d="M480.84 141.72c-3.946 0-7.157 3.21-7.157 7.157 0 3.945 3.21 7.154 7.156 7.154 3.946 0 7.157-3.207 7.157-7.152 0-3.947-3.21-7.158-7.16-7.158"/><path fill="#D771A0" d="M480.84 77.474v.1c3.892 0 7.058 3.165 7.058 7.056 0 3.89-3.166 7.057-7.06 7.057v.1a24.707 24.707 0 0 1 15.072 5.076c4.226 3.213 7.377 7.768 8.873 12.828l.01.037h8.183c3.873 0 7.025 3.153 7.025 7.028 0 3.875-3.15 7.027-7.023 7.027h-.305v.1c.042.003.085.01.128.014.057.008.116.016.178.016 3.945 0 7.154-3.21 7.154-7.156 0-21.66-17.625-39.28-39.29-39.28"/><path fill="#D32680" d="M512.976 109.627h-8.213l.02.064a24.872 24.872 0 0 1 1.035 7.065 7.13 7.13 0 0 0 6.853 7.127h.307c3.93 0 7.125-3.197 7.125-7.126 0-3.93-3.194-7.127-7.124-7.127"/><path fill="#B83282" d="M441.564 116.754h.1c0-3.89 3.166-7.06 7.058-7.06.05 0 .102.01.156.017.05.01.096.015.15.017h7.874l.01-.035c1.496-5.06 4.646-9.614 8.87-12.827a24.677 24.677 0 0 1 15.057-5.077v-.1c-3.89 0-7.058-3.165-7.058-7.056 0-3.89 3.166-7.057 7.056-7.057v-.1c-21.657 0-39.276 17.622-39.276 39.28"/><path fill="#D32A81" d="M480.84 77.474c-3.946 0-7.157 3.21-7.157 7.156a7.164 7.164 0 0 0 7.156 7.156c3.946 0 7.157-3.21 7.157-7.156 0-3.946-3.21-7.156-7.16-7.156"/><path fill="#AB3450" d="M505.917 116.754c0-2.38-.35-4.766-1.04-7.092l-.008-.035h-55.844l-.002.1a7.03 7.03 0 0 1 6.754 7.027 7.029 7.029 0 0 1-6.755 7.027l.002.1h63.644l.002-.1a7.025 7.025 0 0 1-6.756-7.025"/><path fill="#D71D7F" d="M449.027 109.627h-.305a7.135 7.135 0 0 0-7.127 7.127 7.135 7.135 0 0 0 7.127 7.127h.307a7.124 7.124 0 0 0 6.847-7.125 7.127 7.127 0 0 0-6.85-7.127"/><path fill="#6B522A" d="M162.89 117.85c0 3.892-3.167 7.058-7.06 7.058-3.89 0-7.058-3.166-7.058-7.057h-.1v32.803c0 3.947 3.212 7.156 7.158 7.156 3.947 0 7.158-3.21 7.158-7.157v-32.8h-.1"/><path fill="#706B2F" d="M125.313 77.474v.1c3.892 0 7.058 3.165 7.058 7.056 0 3.89-3.164 7.057-7.056 7.057v.1c15.335 0 23.36 13.113 23.36 26.064h.1c0-3.89 3.166-7.056 7.057-7.056 3.894 0 7.06 3.166 7.06 7.058h.1c0-23.02-16.198-40.376-37.676-40.376"/><path fill="#876D38" d="M155.83 110.693c-3.946 0-7.157 3.21-7.157 7.158 0 3.95 3.21 7.16 7.157 7.16a7.165 7.165 0 0 0 7.158-7.158c0-3.946-3.21-7.157-7.158-7.157"/><path fill="#797633" d="M101.908 117.342h-.05v.023a7.018 7.018 0 0 1-2.114 4.912 7.026 7.026 0 0 1-4.94 2.02c-.042 0-.085 0-.13-.004-3.854-.07-6.96-3.262-6.923-7.12l-.1-.003v.023a.21.21 0 0 0-.004.045v33.684c0 3.947 3.21 7.158 7.156 7.158a7.165 7.165 0 0 0 7.158-7.158v-33.578l-.05-.002"/><path fill="#7D7A34" d="M87.645 117.11c0 .013 0 .025.003.036a.115.115 0 0 1 .003.026h.1c.038-3.856 3.2-6.992 7.05-6.992 3.893 0 7.06 3.166 7.06 7.058v.104h.1c.282-15.045 9.887-25.556 23.354-25.556v-.1c-3.89 0-7.058-3.165-7.058-7.056 0-3.89 3.167-7.057 7.058-7.057v-.1c-21.41 0-37.252 16.67-37.668 39.638"/><path fill="#8C8D3F" d="M125.313 77.474c-3.947 0-7.158 3.21-7.158 7.156 0 3.946 3.21 7.156 7.158 7.156 3.947 0 7.158-3.21 7.158-7.156a7.164 7.164 0 0 0-7.156-7.156"/><path fill="#909441" d="M94.8 110.08c-3.905 0-7.112 3.182-7.15 7.092-.035 3.912 3.114 7.152 7.018 7.22.047.004.092.004.136.004a7.116 7.116 0 0 0 5.01-2.048 7.119 7.119 0 0 0 2.143-4.99v-.12c0-3.947-3.21-7.158-7.156-7.158"/><path fill="#384287" d="M328.44 117.88l-.002-.023h-.1c0 14.37-11.69 26.065-26.062 26.065v.1c3.89 0 7.057 3.165 7.057 7.056 0 3.893-3.166 7.06-7.057 7.06v.098c9.56 0 18.844-3.426 26.144-9.646l.018-.014v-30.61l.002-.02c.002-.01.002-.022.002-.034 0-.012 0-.02-.002-.03"/><path fill="#CF227F" d="M302.276 77.474v.1c3.89 0 7.057 3.165 7.057 7.056 0 3.89-3.166 7.057-7.057 7.057v.1c14.37 0 26.062 11.695 26.062 26.07h.1c0-3.89 3.166-7.056 7.057-7.056 3.89 0 7.056 3.168 7.056 7.058h.1c0-22.268-18.11-40.383-40.373-40.383"/><path fill="#384287" d="M261.902 117.857h.1c0-3.89 3.166-7.056 7.056-7.056s7.057 3.168 7.057 7.058h.1c0-14.375 11.69-26.07 26.06-26.07v-.1c-3.89 0-7.055-3.166-7.055-7.057 0-3.89 3.166-7.056 7.056-7.056v-.1c-22.262 0-40.374 18.116-40.374 40.384"/><path fill="#C4237D" d="M302.276 77.474a7.164 7.164 0 0 0-7.156 7.156 7.164 7.164 0 0 0 7.156 7.156c3.947 0 7.157-3.21 7.157-7.156 0-3.946-3.21-7.156-7.157-7.156"/><path fill="#803983" d="M276.215 117.857h-.1c0 3.89-3.166 7.057-7.057 7.057-3.89 0-7.056-3.166-7.056-7.057h-.1c0 22.266 18.112 40.38 40.374 40.38v-.1c-3.89 0-7.056-3.166-7.056-7.06 0-3.89 3.166-7.056 7.056-7.056v-.097c-14.37 0-26.06-11.694-26.06-26.065"/><path fill="#3D337B" d="M302.276 143.922a7.164 7.164 0 0 0-7.156 7.156c0 3.947 3.21 7.158 7.156 7.158a7.165 7.165 0 0 0 7.157-7.158c0-3.947-3.21-7.156-7.157-7.156M269.058 110.7c-3.946 0-7.156 3.21-7.156 7.157 0 3.946 3.21 7.157 7.156 7.157 3.946 0 7.157-3.21 7.157-7.157s-3.21-7.156-7.157-7.156"/><path fill="#803983" d="M342.65 117.95l-.052-.003v-.004.004l-.05-.004c-.026 11.764-5.198 22.906-14.192 30.57l-.018.016v.69c0 3.945 3.21 7.154 7.157 7.154 3.945 0 7.156-3.21 7.156-7.156v-31.27"/><path fill="#3D337B" d="M342.645 117.912h-.1c-.03 3.86-3.193 7.002-7.05 7.002-3.86 0-7.022-3.143-7.053-7.002h-.1c0 .008 0 .016-.002.023l-.002.032v30.693l.082-.07c9.016-7.682 14.202-18.852 14.227-30.647l-.002-.03"/><path fill="#52317B" d="M342.063 115.144a7.108 7.108 0 0 0-13.131-.014 7.136 7.136 0 0 0-.59 2.782c.032 3.916 3.24 7.102 7.153 7.102 3.912 0 7.12-3.186 7.15-7.102a7.123 7.123 0 0 0-.582-2.768"/><path fill="#1B7BAB" d="M39.287 77.474c-3.945 0-7.156 3.21-7.156 7.156 0 3.946 3.213 7.156 7.158 7.156a7.163 7.163 0 0 0 7.156-7.156 7.164 7.164 0 0 0-7.156-7.156"/></g></svg>